<?xml version="1.0" encoding="utf-8"?>
<!-- Generator: Adobe Illustrator 16.0.4, SVG Export Plug-In . SVG Version: 6.00 Build 0)  -->
<!DOCTYPE svg PUBLIC "-//W3C//DTD SVG 1.1//EN" "http://www.w3.org/Graphics/SVG/1.1/DTD/svg11.dtd">
<svg version="1.1" id="Layer_1" xmlns="http://www.w3.org/2000/svg" xmlns:xlink="http://www.w3.org/1999/xlink" x="0px" y="0px"
	 width="110.1px" height="44.4px" viewBox="0 0 110.1 44.4" enable-background="new 0 0 110.1 44.4" xml:space="preserve">
<path fill="#2CB4E8" d="M45.2,4.1c0.3,0.6,0.5,1.1,0.6,1.6c0.1,0.5,0.1,1.1,0.1,2v32.2c0,2.7-0.7,4.2-2.2,4.7
	c-0.7,0.2-1.7,0.3-2.8,0.3c-1.1,0-2-0.1-2.7-0.3c-0.7-0.2-1.2-0.4-1.5-0.7c-0.3-0.3-0.6-0.7-0.8-1.2c-0.2-0.7-0.3-1.7-0.3-3V20.3
	c-1,1.2-2.4,3.1-4.2,5.7c-1.9,2.6-3,4.2-3.5,4.9c-0.5,0.7-0.9,1.1-1,1.4c-0.2,0.3-0.7,0.6-1.4,1c-0.8,0.4-1.6,0.7-2.4,0.7
	s-1.7-0.2-2.4-0.6c-0.7-0.4-1.2-0.8-1.5-1.2l-0.5-0.6c-0.8-1-2.3-3-4.6-6.2c-2.3-3.2-3.5-4.8-3.7-5.1v19.5c0,0.9,0,1.6-0.1,2
	c-0.1,0.4-0.2,0.9-0.6,1.5c-0.6,1-2.1,1.6-4.5,1.6c-2.4,0-3.8-0.5-4.4-1.6c-0.3-0.5-0.5-1-0.6-1.5C0,41.4,0,40.7,0,39.7V7.5
	c0-0.9,0-1.6,0.1-2c0.1-0.4,0.2-1,0.6-1.5c0.6-1,2.1-1.5,4.5-1.5c1,0,1.9,0.1,2.7,0.4c0.8,0.3,1.2,0.5,1.5,0.8L9.7,4l13.2,17.3
	c6.6-8.7,11-14.4,13.2-17.2c0.7-1,2.2-1.6,4.7-1.6C43.1,2.5,44.6,3,45.2,4.1z"/>
<path fill="#2CB4E8" d="M68.8,17.6c0.2-2.2,1.8-3.2,4.6-3.2c1.5,0,2.6,0.1,3.4,0.3c0.7,0.2,1.2,0.6,1.5,1.2c0.3,0.6,0.5,1.1,0.5,1.5
	c0.1,0.4,0.1,1.1,0.1,2v20.3c0,0.9,0,1.6-0.1,2c-0.1,0.4-0.2,1-0.5,1.5c-0.5,1-1.9,1.5-4,1.5s-3.5-0.3-4.2-0.8
	c-0.7-0.5-1.1-1.3-1.2-2.3c-1.4,2.1-3.8,3.1-7.2,3.1c-3.3,0-6.4-1.5-9.3-4.6c-2.9-3.1-4.3-6.6-4.3-10.6c0-4,1.4-7.6,4.3-10.6
	c2.9-3,6-4.6,9.5-4.6c1.3,0,2.5,0.2,3.6,0.7c1.1,0.5,1.8,0.9,2.3,1.3C68.2,16.8,68.6,17.2,68.8,17.6z M58.3,29.7
	c0,1.3,0.5,2.4,1.5,3.5c1,1,2.2,1.5,3.7,1.5c1.4,0,2.6-0.5,3.6-1.6c0.9-1,1.4-2.2,1.4-3.5c0-1.3-0.5-2.4-1.4-3.5
	c-0.9-1.1-2.1-1.6-3.7-1.6c-1.5,0-2.8,0.5-3.7,1.6C58.8,27.2,58.3,28.4,58.3,29.7z"/>
<path fill="#2CB4E8" d="M91.7,8.7c-0.3,0.6-0.8,1-1.5,1.2c-0.7,0.2-1.7,0.3-2.9,0.3s-2.2-0.1-2.9-0.3c-0.7-0.2-1.2-0.6-1.5-1.2
	c-0.3-0.6-0.5-1.1-0.5-1.5c-0.1-0.4-0.1-1.1-0.1-2c0-0.9,0-1.6,0.1-2c0.1-0.4,0.2-0.9,0.5-1.5c0.5-1,2-1.6,4.5-1.6
	c2.4,0,3.9,0.5,4.4,1.6c0.3,0.6,0.5,1.1,0.6,1.5c0.1,0.4,0.1,1.1,0.1,2c0,0.9,0,1.6-0.1,2S92,8.2,91.7,8.7z M82.1,19.5
	c0-0.9,0-1.6,0.1-2c0.1-0.4,0.2-1,0.5-1.5c0.5-1,2-1.5,4.5-1.5c1.9,0,3.2,0.3,3.9,1c0.7,0.5,1,1.4,1,2.5c0,0.4,0.1,0.9,0.1,1.7v20.3
	c0,0.9,0,1.6-0.1,2c-0.1,0.4-0.2,1-0.6,1.5c-0.5,1-2,1.5-4.5,1.5c-2.4,0-3.9-0.5-4.5-1.6c-0.3-0.6-0.4-1.1-0.5-1.5
	c-0.1-0.4-0.1-1.1-0.1-2V19.5z"/>
<path fill="#2CB4E8" d="M95.5,5.1c0-0.9,0-1.6,0.1-2c0.1-0.4,0.2-1,0.5-1.5c0.5-1,2-1.6,4.5-1.6c2.4,0,3.8,0.5,4.4,1.6
	c0.3,0.6,0.5,1.1,0.6,1.6c0.1,0.5,0.1,1.1,0.1,2V32c0,1.4,0.1,2.3,0.3,2.6c0.2,0.4,0.7,0.6,1.5,0.6s1.3,0,1.6,0.1
	c0.3,0.1,0.6,0.2,1,0.5c0.8,0.5,1.2,1.9,1.2,4.1c0,2.4-0.4,3.9-1.2,4.5c-1,0.7-3.4,0.8-7.2,0.3c-3-0.4-4.9-1.4-5.8-3
	c-1.1-1.9-1.6-4.9-1.6-9V5.1z"/>
</svg>
