<?xml version="1.0" encoding="utf-8"?>
<!-- Generator: Adobe Illustrator 16.0.4, SVG Export Plug-In . SVG Version: 6.00 Build 0)  -->
<!DOCTYPE svg PUBLIC "-//W3C//DTD SVG 1.1//EN" "http://www.w3.org/Graphics/SVG/1.1/DTD/svg11.dtd">
<svg version="1.1" id="Layer_1" xmlns="http://www.w3.org/2000/svg" xmlns:xlink="http://www.w3.org/1999/xlink" x="0px" y="0px"
	 width="105.4px" height="41.8px" viewBox="0 0 105.4 41.8" enable-background="new 0 0 105.4 41.8" xml:space="preserve">
<path fill="#2CB4E8" d="M1.1,38.3C0.4,37.8,0,37.1,0,36.1c0-1,0.7-2.5,2.2-4.6c0.4-0.7,1.1-1,2.1-1c0.9,0,2.2,0.5,3.9,1.4
	c1.6,0.9,3.1,1.4,4.4,1.4c2.4,0,3.5-0.5,3.5-1.4c0-0.7-1.3-1.3-3.9-1.6c-2.4-0.3-4.9-1.3-7.2-2.7c-1.1-0.7-2-1.8-2.8-3.3
	C1.4,22.8,1,21.1,1,19c0-6.1,4.2-9.2,12.6-9.2c2.7,0,5.6,0.7,8.5,2c1.4,0.6,2,1.4,2,2.3c0,0.9-0.4,2.1-1.3,3.4s-1.7,2-2.6,2
	c-0.5,0-1.3-0.3-2.6-0.9c-1.3-0.6-2.6-0.9-4.1-0.9c-2.3,0-3.4,0.4-3.4,1.3c0,1.2,1.3,1.9,3.9,2.3c2.6,0.3,5,1,7.4,2.2
	c1.1,0.5,2.1,1.5,2.8,2.8s1.1,3,1.1,5c0,2-0.4,3.7-1.1,5.1s-1.8,2.5-3.2,3.2c-2.5,1.2-5.6,1.8-9.3,1.8S4.5,40.4,1.1,38.3z"/>
<path fill="#2CB4E8" d="M44.6,20.7l-3.8-0.2v8c0,1,0.2,1.8,0.5,2.3c0.3,0.5,0.9,0.7,1.9,0.7c0.9,0,1.6,0,2.1,0.1
	c0.5,0.1,1,0.2,1.5,0.6c0.9,0.5,1.3,1.8,1.3,3.9c0,2.4-0.5,3.9-1.6,4.5c-0.6,0.3-1.1,0.4-1.5,0.5C44.5,41,43.9,41,43,41
	c-4,0-7.1-0.9-9.2-2.7s-3.1-4.9-3.1-9.2v-8.6c-0.7,0.1-1.5,0.2-2.4,0.2c-0.9,0-1.6-0.3-2.1-1s-0.8-1.8-0.8-3.4
	c0-1.6,0.1-2.7,0.3-3.5c0.2-0.7,0.5-1.2,0.8-1.5c0.6-0.5,1.4-0.8,2.3-0.8l1.9,0.2v-6c0-0.9,0-1.5,0.1-2c0.1-0.4,0.2-0.9,0.6-1.4
	c0.5-1,2-1.5,4.5-1.5c2.6,0,4.2,0.7,4.7,2.1c0.2,0.6,0.3,1.6,0.3,3v5.7c1.7-0.2,3-0.2,3.9-0.2s1.5,0,2,0.1c0.4,0.1,1,0.2,1.5,0.6
	c1,0.5,1.5,2,1.5,4.5c0,2.4-0.5,3.9-1.6,4.5c-0.6,0.3-1.1,0.4-1.5,0.5C46.2,20.7,45.5,20.7,44.6,20.7z"/>
<path fill="#2CB4E8" d="M79.8,22.1c0,2.4-0.6,4.1-1.8,5.3c-1.2,1.1-2.5,1.7-3.9,1.7H60.3c0,1.1,0.6,2,1.9,2.7
	c1.3,0.7,2.6,1.1,3.8,1.1c2.2,0,4-0.2,5.3-0.7L72,32c0.9-0.4,1.7-0.6,2.3-0.6c1.2,0,2.3,0.9,3.2,2.6c0.5,1,0.8,1.9,0.8,2.7
	c0,3.4-4.1,5.2-12.4,5.2c-2.9,0-5.4-0.5-7.6-1.5c-2.2-1-4-2.3-5.2-3.9c-2.4-3.1-3.7-6.6-3.7-10.5c0-4.9,1.6-8.8,4.7-11.7
	c3.2-2.9,7.1-4.4,11.8-4.4c5.4,0,9.3,1.9,11.8,5.7C79.1,17.5,79.8,19.7,79.8,22.1z M67.5,23.8c1.5,0,2.2-0.6,2.2-1.9
	c0-0.9-0.3-1.6-1-2.1C68,19.2,67.1,19,65.8,19c-1.3,0-2.5,0.5-3.7,1.5s-1.9,2.1-1.9,3.3H67.5z"/>
<path fill="#2CB4E8" d="M102.8,10.8c0.7,0.2,1.3,0.6,1.8,1.2c0.5,0.6,0.7,1.5,0.7,2.7c0,1.2-0.4,2.6-1.1,4.1
	c-0.7,1.5-1.8,2.2-3.2,2.2c-0.7,0-1.4-0.2-2-0.5c-0.6-0.3-1.5-0.5-2.5-0.5s-2,0.4-2.9,1.1s-1.4,1.6-1.4,2.7V36c0,0.9,0,1.6-0.1,2
	c-0.1,0.4-0.2,1-0.6,1.5c-0.6,1-2.1,1.5-4.5,1.5c-1.9,0-3.2-0.3-4-1c-0.6-0.5-1-1.4-1-2.5c0-0.4,0-0.9,0-1.7V15.5c0-0.9,0-1.6,0.1-2
	c0.1-0.4,0.2-0.9,0.5-1.5c0.5-1,2-1.6,4.5-1.6c2.3,0,3.8,0.4,4.4,1.3c0.4,0.6,0.6,1.3,0.6,1.9c0.2-0.3,0.5-0.6,0.8-1
	c0.4-0.4,1.2-0.9,2.3-1.6c1.2-0.7,2.3-1,3.2-1s1.7,0,2.3,0.1C101.4,10.4,102.1,10.6,102.8,10.8z"/>
</svg>
