<?xml version="1.0" encoding="utf-8"?>
<!-- Generator: Adobe Illustrator 16.0.4, SVG Export Plug-In . SVG Version: 6.00 Build 0)  -->
<!DOCTYPE svg PUBLIC "-//W3C//DTD SVG 1.1//EN" "http://www.w3.org/Graphics/SVG/1.1/DTD/svg11.dtd">
<svg version="1.1" id="Layer_1" xmlns="http://www.w3.org/2000/svg" xmlns:xlink="http://www.w3.org/1999/xlink" x="0px" y="0px"
	 width="217.5px" height="45px" viewBox="0 0 217.5 45" enable-background="new 0 0 217.5 45" xml:space="preserve">
<g>
	<path fill="#2CB4E8" d="M45.2,4.1c0.3,0.6,0.5,1.1,0.6,1.6c0.1,0.5,0.1,1.1,0.1,2v32.2c0,2.7-0.7,4.2-2.2,4.7
		c-0.7,0.2-1.7,0.3-2.8,0.3c-1.1,0-2-0.1-2.7-0.3c-0.7-0.2-1.2-0.4-1.5-0.7c-0.3-0.3-0.6-0.7-0.8-1.2c-0.2-0.7-0.3-1.7-0.3-3V20.3
		c-1,1.2-2.4,3.1-4.2,5.7c-1.9,2.6-3,4.2-3.5,4.9c-0.5,0.7-0.9,1.1-1,1.4c-0.2,0.3-0.7,0.6-1.4,1c-0.8,0.4-1.6,0.7-2.4,0.7
		s-1.7-0.2-2.4-0.6c-0.7-0.4-1.2-0.8-1.5-1.2l-0.5-0.6c-0.8-1-2.3-3-4.6-6.2c-2.3-3.2-3.5-4.8-3.7-5.1v19.5c0,0.9,0,1.6-0.1,2
		c-0.1,0.4-0.2,0.9-0.6,1.5c-0.6,1-2.1,1.6-4.5,1.6c-2.4,0-3.8-0.5-4.4-1.6c-0.3-0.5-0.5-1-0.6-1.5C0,41.4,0,40.7,0,39.7V7.5
		c0-0.9,0-1.6,0.1-2c0.1-0.4,0.2-1,0.6-1.5c0.6-1,2.1-1.5,4.5-1.5c1,0,1.9,0.1,2.7,0.4c0.8,0.3,1.2,0.5,1.5,0.8L9.7,4l13.2,17.3
		c6.6-8.7,11-14.4,13.2-17.2c0.7-1,2.2-1.6,4.7-1.6C43.1,2.5,44.6,3,45.2,4.1z"/>
	<path fill="#2CB4E8" d="M68.8,17.6c0.2-2.2,1.8-3.2,4.6-3.2c1.5,0,2.6,0.1,3.4,0.3c0.7,0.2,1.2,0.6,1.5,1.2s0.5,1.1,0.5,1.5
		c0.1,0.4,0.1,1.1,0.1,2v20.3c0,0.9,0,1.6-0.1,2c-0.1,0.4-0.2,1-0.5,1.5c-0.5,1-1.9,1.5-4,1.5c-2.1,0-3.5-0.3-4.2-0.8
		c-0.7-0.5-1.1-1.3-1.2-2.3c-1.4,2.1-3.8,3.1-7.2,3.1s-6.4-1.5-9.3-4.6c-2.9-3.1-4.3-6.6-4.3-10.6c0-4,1.4-7.6,4.3-10.6
		c2.9-3,6-4.6,9.5-4.6c1.3,0,2.5,0.2,3.6,0.7c1.1,0.5,1.8,0.9,2.3,1.3C68.2,16.8,68.6,17.2,68.8,17.6z M58.3,29.7
		c0,1.3,0.5,2.4,1.5,3.5c1,1,2.2,1.5,3.7,1.5s2.6-0.5,3.6-1.6c0.9-1,1.4-2.2,1.4-3.5c0-1.3-0.5-2.4-1.4-3.5
		c-0.9-1.1-2.1-1.6-3.7-1.6c-1.5,0-2.8,0.5-3.7,1.6C58.8,27.2,58.3,28.4,58.3,29.7z"/>
	<path fill="#2CB4E8" d="M91.7,8.7c-0.3,0.6-0.8,1-1.5,1.2c-0.7,0.2-1.7,0.3-2.9,0.3c-1.2,0-2.2-0.1-2.9-0.3
		c-0.7-0.2-1.2-0.6-1.5-1.2s-0.5-1.1-0.5-1.5c-0.1-0.4-0.1-1.1-0.1-2c0-0.9,0-1.6,0.1-2c0.1-0.4,0.2-0.9,0.5-1.5
		c0.5-1,2-1.6,4.5-1.6c2.4,0,3.9,0.5,4.4,1.6c0.3,0.6,0.5,1.1,0.6,1.5c0.1,0.4,0.1,1.1,0.1,2c0,0.9,0,1.6-0.1,2
		C92.1,7.7,92,8.2,91.7,8.7z M82.1,19.5c0-0.9,0-1.6,0.1-2c0.1-0.4,0.2-1,0.5-1.5c0.5-1,2-1.5,4.5-1.5c1.9,0,3.2,0.3,3.9,1
		c0.7,0.5,1,1.4,1,2.5c0,0.4,0.1,0.9,0.1,1.7v20.3c0,0.9,0,1.6-0.1,2c-0.1,0.4-0.2,1-0.6,1.5c-0.5,1-2,1.5-4.5,1.5
		c-2.4,0-3.9-0.5-4.5-1.6c-0.3-0.6-0.4-1.1-0.5-1.5c-0.1-0.4-0.1-1.1-0.1-2V19.5z"/>
	<path fill="#2CB4E8" d="M95.5,5.1c0-0.9,0-1.6,0.1-2c0.1-0.4,0.2-1,0.5-1.5c0.5-1,2-1.6,4.5-1.6c2.4,0,3.8,0.5,4.4,1.6
		c0.3,0.6,0.5,1.1,0.6,1.6c0.1,0.5,0.1,1.1,0.1,2V32c0,1.4,0.1,2.3,0.3,2.6c0.2,0.4,0.7,0.6,1.5,0.6c0.8,0,1.3,0,1.6,0.1
		c0.3,0.1,0.6,0.2,1,0.5c0.8,0.5,1.2,1.9,1.2,4.1c0,2.4-0.4,3.9-1.2,4.5c-1,0.7-3.4,0.8-7.2,0.3c-3-0.4-4.9-1.4-5.8-3
		c-1.1-1.9-1.6-4.9-1.6-9V5.1z"/>
	<path fill="#2CB4E8" d="M113.2,42.2c-0.7-0.5-1.1-1.2-1.1-2.2c0-1,0.7-2.5,2.2-4.6c0.4-0.7,1.1-1,2.1-1c0.9,0,2.2,0.5,3.9,1.4
		c1.6,0.9,3.1,1.4,4.4,1.4c2.4,0,3.5-0.5,3.5-1.4c0-0.7-1.3-1.3-3.9-1.6c-2.4-0.3-4.9-1.3-7.2-2.7c-1.1-0.7-2-1.8-2.8-3.3
		c-0.7-1.5-1.1-3.3-1.1-5.3c0-6.1,4.2-9.2,12.6-9.2c2.7,0,5.6,0.7,8.5,2c1.4,0.6,2,1.4,2,2.3c0,0.9-0.4,2.1-1.3,3.4s-1.7,2-2.6,2
		c-0.5,0-1.3-0.3-2.6-0.9c-1.3-0.6-2.6-0.9-4.1-0.9c-2.3,0-3.4,0.4-3.4,1.3c0,1.2,1.3,1.9,3.9,2.3c2.6,0.3,5,1,7.4,2.2
		c1.1,0.5,2.1,1.5,2.8,2.8s1.1,3,1.1,5c0,2-0.4,3.7-1.1,5.1s-1.8,2.5-3.2,3.2c-2.5,1.2-5.6,1.8-9.3,1.8S116.7,44.4,113.2,42.2z"/>
	<path fill="#2CB4E8" d="M156.7,24.7l-3.8-0.2v8c0,1,0.2,1.8,0.5,2.3c0.3,0.5,0.9,0.7,1.9,0.7c0.9,0,1.6,0,2.1,0.1
		c0.5,0.1,1,0.2,1.5,0.6c0.9,0.5,1.3,1.8,1.3,3.9c0,2.4-0.5,3.9-1.6,4.5c-0.6,0.3-1.1,0.4-1.5,0.5c-0.4,0.1-1.1,0.1-1.9,0.1
		c-4,0-7.1-0.9-9.2-2.7s-3.1-4.9-3.1-9.2v-8.6c-0.7,0.1-1.5,0.2-2.4,0.2c-0.9,0-1.6-0.3-2.1-1s-0.8-1.8-0.8-3.4
		c0-1.6,0.1-2.7,0.3-3.5c0.2-0.7,0.5-1.2,0.8-1.5c0.6-0.5,1.4-0.8,2.3-0.8l1.9,0.2v-6c0-0.9,0-1.5,0.1-2c0.1-0.4,0.2-0.9,0.6-1.4
		c0.5-1,2-1.5,4.5-1.5c2.6,0,4.2,0.7,4.7,2.1c0.2,0.6,0.3,1.6,0.3,3v5.7c1.7-0.2,3-0.2,3.9-0.2s1.5,0,2,0.1c0.4,0.1,1,0.2,1.5,0.6
		c1,0.5,1.5,2,1.5,4.5c0,2.4-0.5,3.9-1.6,4.5c-0.6,0.3-1.1,0.4-1.5,0.5C158.3,24.6,157.6,24.7,156.7,24.7z"/>
	<path fill="#2CB4E8" d="M191.9,26c0,2.4-0.6,4.1-1.8,5.3c-1.2,1.1-2.5,1.7-3.9,1.7h-13.7c0,1.1,0.6,2,1.9,2.7
		c1.3,0.7,2.6,1.1,3.8,1.1c2.2,0,4-0.2,5.3-0.7l0.6-0.2c0.9-0.4,1.7-0.6,2.3-0.6c1.2,0,2.3,0.9,3.2,2.6c0.5,1,0.8,1.9,0.8,2.7
		c0,3.4-4.1,5.2-12.4,5.2c-2.9,0-5.4-0.5-7.6-1.5c-2.2-1-4-2.3-5.2-3.9c-2.4-3.1-3.7-6.6-3.7-10.5c0-4.9,1.6-8.8,4.7-11.7
		c3.2-2.9,7.1-4.4,11.8-4.4c5.4,0,9.3,1.9,11.8,5.7C191.2,21.4,191.9,23.6,191.9,26z M179.6,27.7c1.5,0,2.2-0.6,2.2-1.9
		c0-0.9-0.3-1.6-1-2.1c-0.7-0.5-1.6-0.8-2.9-0.8c-1.3,0-2.5,0.5-3.7,1.5s-1.9,2.1-1.9,3.3H179.6z"/>
	<path fill="#2CB4E8" d="M214.9,14.7c0.7,0.2,1.3,0.6,1.8,1.2c0.5,0.6,0.7,1.5,0.7,2.7c0,1.2-0.4,2.6-1.1,4.1
		c-0.7,1.5-1.8,2.2-3.2,2.2c-0.7,0-1.4-0.2-2-0.5c-0.6-0.3-1.5-0.5-2.5-0.5s-2,0.4-2.9,1.1s-1.4,1.6-1.4,2.7v12.2c0,0.9,0,1.6-0.1,2
		c-0.1,0.4-0.2,1-0.6,1.5c-0.6,1-2.1,1.5-4.5,1.5c-1.9,0-3.2-0.3-4-1c-0.6-0.5-1-1.4-1-2.5c0-0.4,0-0.9,0-1.7V19.4
		c0-0.9,0-1.6,0.1-2c0.1-0.4,0.2-0.9,0.5-1.5c0.5-1,2-1.6,4.5-1.6c2.3,0,3.8,0.4,4.4,1.3c0.4,0.6,0.6,1.3,0.6,1.9
		c0.2-0.3,0.5-0.6,0.8-1c0.4-0.4,1.2-0.9,2.3-1.6c1.2-0.7,2.3-1,3.2-1s1.7,0,2.3,0.1C213.5,14.3,214.2,14.5,214.9,14.7z"/>
</g>
</svg>
