<?xml version="1.0" encoding="utf-8"?>
<!-- Generator: Adobe Illustrator 16.0.4, SVG Export Plug-In . SVG Version: 6.00 Build 0)  -->
<!DOCTYPE svg PUBLIC "-//W3C//DTD SVG 1.1//EN" "http://www.w3.org/Graphics/SVG/1.1/DTD/svg11.dtd">
<svg version="1.1" id="Layer_1" xmlns="http://www.w3.org/2000/svg" xmlns:xlink="http://www.w3.org/1999/xlink" x="0px" y="0px"
	 width="333.5px" height="277.1px" viewBox="0 0 333.5 277.1" enable-background="new 0 0 333.5 277.1" xml:space="preserve">
<g>
	<polygon fill="#58595B" points="210.2,0 167.4,52.3 124.6,0 48.6,0 48.6,194.8 115.1,194.8 115.1,85.5 167.4,156.8 219.7,85.5 
		219.7,194.8 286.2,194.8 286.2,0 	"/>
	<g opacity="0.5">
		<polygon opacity="0.06" enable-background="new    " points="286.2,0 219.7,133.1 219.7,85.5 		"/>
		<polygon opacity="0.06" enable-background="new    " points="212.4,0.4 167.4,155.4 167.4,51.5 		"/>
		<polygon opacity="0.15" enable-background="new    " points="48.6,0 48.6,9.5 115.1,194.8 115.1,85.5 		"/>
		<polygon opacity="0.03" enable-background="new    " points="122.4,0.4 167.4,155.4 167.4,51.5 		"/>
	</g>
</g>
<g enable-background="new    ">
	<path fill="#58595B" d="M70.47,215.022c0.469,0.88,0.748,1.672,0.836,2.376c0.088,0.704,0.132,1.731,0.132,3.08v48.843
		c0,4.048-1.115,6.424-3.344,7.128c-1.115,0.353-2.523,0.528-4.224,0.528c-1.702,0-3.051-0.146-4.048-0.44
		c-0.998-0.293-1.76-0.645-2.288-1.056c-0.528-0.41-0.939-0.997-1.232-1.76c-0.294-0.997-0.44-2.522-0.44-4.577v-29.481
		c-1.467,1.819-3.608,4.709-6.424,8.669c-2.816,3.96-4.606,6.439-5.369,7.437c-0.763,0.998-1.291,1.687-1.584,2.067
		c-0.294,0.383-1.012,0.911-2.156,1.585c-1.144,0.675-2.376,1.012-3.696,1.012c-1.32,0-2.523-0.309-3.608-0.924
		c-1.086-0.616-1.863-1.217-2.332-1.805l-0.704-0.968c-1.174-1.466-3.491-4.59-6.953-9.372c-3.462-4.781-5.339-7.349-5.632-7.701
		v29.658c0,1.35-0.044,2.362-0.132,3.036c-0.088,0.675-0.367,1.423-0.836,2.244c-0.88,1.584-3.168,2.376-6.864,2.376
		c-3.58,0-5.809-0.792-6.688-2.376c-0.47-0.821-0.748-1.584-0.836-2.288c-0.088-0.704-0.132-1.761-0.132-3.169v-48.842
		c0-1.35,0.044-2.361,0.132-3.036c0.088-0.674,0.366-1.452,0.836-2.333c0.88-1.524,3.168-2.288,6.864-2.288
		c1.584,0,2.948,0.191,4.092,0.572c1.144,0.383,1.892,0.778,2.244,1.188l0.528,0.527l19.977,26.226
		c9.974-13.2,16.633-21.913,19.978-26.137c0.997-1.585,3.358-2.377,7.084-2.377C67.374,212.645,69.647,213.437,70.47,215.022z"/>
	<path fill="#58595B" d="M106.639,235.615c0.352-3.285,2.669-4.929,6.953-4.929c2.288,0,3.989,0.177,5.104,0.528
		c1.114,0.353,1.892,0.968,2.333,1.849c0.44,0.88,0.704,1.658,0.792,2.332c0.088,0.675,0.132,1.687,0.132,3.036v30.802
		c0,1.35-0.044,2.362-0.132,3.036c-0.088,0.675-0.338,1.452-0.748,2.332c-0.822,1.526-2.832,2.288-6.028,2.288
		c-3.199,0-5.339-0.396-6.424-1.188c-1.086-0.792-1.716-1.949-1.892-3.476c-2.171,3.11-5.795,4.664-10.869,4.664
		c-5.076,0-9.784-2.317-14.125-6.952c-4.342-4.635-6.512-10.018-6.512-16.149c0-6.13,2.185-11.498,6.556-16.104
		c4.37-4.605,9.167-6.908,14.389-6.908c1.994,0,3.813,0.352,5.457,1.056c1.642,0.704,2.786,1.364,3.432,1.98
		C105.7,234.426,106.228,235.029,106.639,235.615z M90.622,253.919c0,1.937,0.762,3.683,2.288,5.236
		c1.525,1.556,3.373,2.332,5.544,2.332c2.169,0,3.974-0.792,5.412-2.376c1.437-1.584,2.156-3.329,2.156-5.236
		c0-1.905-0.69-3.681-2.068-5.324c-1.379-1.642-3.227-2.464-5.544-2.464c-2.318,0-4.195,0.822-5.632,2.464
		C91.34,250.195,90.622,251.984,90.622,253.919z"/>
	<path fill="#58595B" d="M141.532,222.106c-0.44,0.852-1.218,1.452-2.332,1.804c-1.115,0.353-2.596,0.528-4.444,0.528
		s-3.331-0.176-4.444-0.528c-1.115-0.352-1.892-0.968-2.332-1.848s-0.704-1.657-0.792-2.332c-0.088-0.674-0.132-1.686-0.132-3.036
		c0-1.35,0.044-2.361,0.132-3.036c0.088-0.674,0.337-1.422,0.748-2.244c0.821-1.584,3.109-2.376,6.864-2.376
		c3.696,0,5.925,0.792,6.688,2.376c0.469,0.88,0.748,1.658,0.836,2.332c0.088,0.675,0.132,1.688,0.132,3.036
		c0,1.351-0.044,2.362-0.132,3.036C142.236,220.492,141.972,221.256,141.532,222.106z M127.055,238.431
		c0-1.35,0.044-2.361,0.132-3.036c0.088-0.674,0.337-1.452,0.748-2.332c0.821-1.525,3.109-2.288,6.864-2.288
		c2.816,0,4.81,0.499,5.984,1.495c0.997,0.823,1.525,2.084,1.584,3.785c0.058,0.587,0.088,1.438,0.088,2.552v30.802
		c0,1.351-0.044,2.362-0.132,3.036c-0.088,0.675-0.367,1.452-0.836,2.332c-0.763,1.526-3.022,2.288-6.776,2.288
		c-3.696,0-5.956-0.792-6.776-2.376c-0.411-0.88-0.66-1.642-0.748-2.288c-0.088-0.646-0.132-1.672-0.132-3.08V238.431z"/>
	<path fill="#58595B" d="M147.56,216.606c0-1.35,0.044-2.361,0.132-3.036c0.088-0.674,0.337-1.452,0.748-2.332
		c0.821-1.585,3.109-2.377,6.864-2.377c3.578,0,5.808,0.792,6.688,2.377c0.469,0.88,0.748,1.672,0.836,2.376s0.132,1.73,0.132,3.08
		v40.746c0,2.112,0.176,3.447,0.528,4.004c0.352,0.559,1.129,0.836,2.332,0.836c1.202,0,2.009,0.044,2.419,0.133
		c0.41,0.088,0.91,0.338,1.496,0.748c1.174,0.763,1.761,2.846,1.761,6.248c0,3.696-0.587,5.955-1.761,6.776
		c-1.525,1.056-5.163,1.231-10.912,0.528c-4.519-0.586-7.451-2.082-8.8-4.488c-1.643-2.874-2.464-7.45-2.464-13.729V216.606z"/>
	<path fill="#58595B" d="M174.753,272.929c-1.115-0.704-1.672-1.818-1.672-3.345c0-1.524,1.114-3.842,3.345-6.952
		c0.645-0.997,1.686-1.496,3.123-1.496s3.389,0.719,5.854,2.156c2.463,1.438,4.692,2.156,6.688,2.156
		c3.578,0,5.369-0.704,5.369-2.112c0-1.114-1.967-1.937-5.896-2.465c-3.697-0.527-7.364-1.905-11.001-4.136
		c-1.702-1.056-3.11-2.713-4.225-4.973c-1.114-2.258-1.672-4.941-1.672-8.052c0-9.27,6.365-13.905,19.097-13.905
		c4.166,0,8.449,0.998,12.85,2.992c2.053,0.939,3.08,2.112,3.08,3.521s-0.646,3.14-1.937,5.192c-1.291,2.054-2.611,3.08-3.96,3.08
		c-0.704,0-2.011-0.44-3.916-1.32c-1.908-0.88-3.976-1.32-6.205-1.32c-3.463,0-5.191,0.646-5.191,1.937
		c0,1.76,1.993,2.904,5.984,3.432c3.871,0.411,7.625,1.526,11.264,3.345c1.701,0.822,3.125,2.244,4.269,4.269
		c1.144,2.023,1.716,4.562,1.716,7.612c0,3.051-0.572,5.647-1.716,7.788c-1.144,2.143-2.743,3.74-4.796,4.796
		c-3.756,1.819-8.464,2.729-14.125,2.729C185.416,277.857,179.975,276.215,174.753,272.929z"/>
	<path fill="#58595B" d="M241.021,246.263l-5.721-0.352v12.145c0,1.584,0.248,2.728,0.748,3.432
		c0.498,0.704,1.438,1.057,2.816,1.057c1.377,0,2.434,0.044,3.168,0.132c0.732,0.088,1.51,0.367,2.332,0.836
		c1.349,0.763,2.023,2.729,2.023,5.896c0,3.696-0.822,5.955-2.463,6.776c-0.881,0.411-1.659,0.66-2.333,0.748
		c-0.675,0.088-1.658,0.132-2.948,0.132c-6.103,0-10.736-1.378-13.904-4.136s-4.752-7.422-4.752-13.993v-13.024
		c-1.115,0.176-2.318,0.264-3.609,0.264s-2.361-0.498-3.211-1.496c-0.852-0.997-1.276-2.698-1.276-5.104
		c0-2.405,0.146-4.149,0.44-5.236c0.293-1.085,0.703-1.861,1.231-2.332c0.938-0.762,2.112-1.144,3.521-1.144l2.904,0.352v-9.064
		c0-1.349,0.043-2.346,0.131-2.992c0.089-0.645,0.366-1.349,0.837-2.112c0.762-1.466,3.021-2.2,6.776-2.2
		c3.988,0,6.365,1.087,7.129,3.257c0.292,0.938,0.439,2.435,0.439,4.488v8.624c2.581-0.233,4.532-0.352,5.852-0.352
		c1.32,0,2.317,0.044,2.992,0.132c0.674,0.088,1.453,0.367,2.332,0.836c1.525,0.763,2.289,3.022,2.289,6.776
		c0,3.696-0.793,5.955-2.377,6.776c-0.879,0.411-1.658,0.66-2.332,0.748C243.382,246.219,242.37,246.263,241.021,246.263z"/>
	<path fill="#58595B" d="M294.616,248.331c0,3.608-0.896,6.278-2.685,8.008c-1.79,1.731-3.77,2.597-5.939,2.597h-20.857
		c0,1.644,0.968,3.022,2.904,4.136c1.936,1.115,3.872,1.673,5.809,1.673c3.401,0,6.072-0.353,8.008-1.057l0.969-0.352
		c1.408-0.646,2.58-0.969,3.52-0.969c1.877,0,3.49,1.32,4.84,3.961c0.762,1.584,1.145,2.935,1.145,4.048
		c0,5.223-6.248,7.833-18.745,7.833c-4.343,0-8.199-0.748-11.572-2.244c-3.374-1.496-5.999-3.477-7.876-5.94
		c-3.697-4.753-5.545-10.062-5.545-15.93c0-7.392,2.39-13.302,7.172-17.732c4.781-4.429,10.751-6.645,17.909-6.645
		c8.154,0,14.139,2.875,17.953,8.625C293.618,241.394,294.616,244.723,294.616,248.331z M276.047,250.927
		c2.229,0,3.345-0.938,3.345-2.815c0-1.35-0.515-2.435-1.54-3.257c-1.027-0.82-2.494-1.231-4.4-1.231
		c-1.907,0-3.799,0.778-5.676,2.332c-1.879,1.555-2.816,3.212-2.816,4.972H276.047z"/>
	<path fill="#58595B" d="M329.906,231.214c1.113,0.353,2.037,0.954,2.771,1.804c0.732,0.852,1.1,2.216,1.1,4.093
		c0,1.878-0.558,3.932-1.672,6.16c-1.115,2.23-2.728,3.345-4.84,3.345c-1.057,0-2.068-0.234-3.036-0.704s-2.244-0.704-3.828-0.704
		s-3.066,0.558-4.444,1.672c-1.379,1.115-2.068,2.464-2.068,4.048v18.481c0,1.351-0.044,2.362-0.132,3.036
		c-0.088,0.675-0.367,1.452-0.836,2.332c-0.88,1.526-3.168,2.288-6.864,2.288c-2.816,0-4.84-0.498-6.072-1.496
		c-0.939-0.821-1.467-2.082-1.584-3.784c0-0.586,0-1.437,0-2.552v-30.89c0-1.35,0.043-2.361,0.132-3.036
		c0.088-0.674,0.337-1.422,0.748-2.244c0.821-1.585,3.108-2.377,6.864-2.377c3.52,0,5.721,0.676,6.6,2.024
		c0.646,0.939,0.969,1.907,0.969,2.904c0.293-0.41,0.718-0.909,1.275-1.496c0.558-0.586,1.746-1.378,3.564-2.376
		c1.818-0.997,3.418-1.496,4.797-1.496c1.377,0,2.537,0.074,3.477,0.22C327.764,230.614,328.791,230.863,329.906,231.214z"/>
</g>
</svg>
